<svg xmlns="http://www.w3.org/2000/svg" viewBox="55 25 290 360" width="290" height="360">
  <defs>
    <linearGradient id="shieldGold" x1="0" y1="0" x2="0" y2="1">
      <stop offset="0%" stop-color="#c0a050"/>
      <stop offset="100%" stop-color="#8a6e30"/>
    </linearGradient>
    <linearGradient id="shieldInner" x1="0" y1="0" x2="0" y2="1">
      <stop offset="0%" stop-color="#2a2a3a"/>
      <stop offset="100%" stop-color="#1a1a28"/>
    </linearGradient>
    <clipPath id="shieldClip">
      <path d="M200,55 L318,110 L318,218 Q318,300 200,355 Q82,300 82,218 L82,110 Z"/>
    </clipPath>
  </defs>
  <path d="M200,40 L330,100 L330,220 Q330,310 200,370 Q70,310 70,220 L70,100 Z" fill="url(#shieldGold)"/>
  <path d="M200,55 L318,110 L318,218 Q318,300 200,355 Q82,300 82,218 L82,110 Z" fill="url(#shieldInner)"/>
  <g clip-path="url(#shieldClip)" transform="translate(108, 72) scale(0.24)" fill="#c0a050" fill-rule="evenodd">
<path d="M496.67,461.59c17.23,20.93,39.67,26.77,65.46,23.85,.04,.37,.08,.73,.12,1.1-.67,.94-1.18,2.07-2.04,2.78-4.95,4.11-9.89,8.24-15.06,12.07-1.26,.93-3.49,1.33-5.03,.98-21.97-5.09-39.7-16.51-52.03-35.66-1.31-2.04-2.53-2.28-4.78-1.79-6.36,1.38-12.76,2.87-19.21,3.35-3.47,.26-7.07-1.52-10.64-2.23-1.71-.34-3.62-.83-5.21-.4-65.64,18.13-131.24,36.37-196.87,54.54-11.39,3.15-22.76,6.49-34.31,8.94-9.17,1.95-15.91-2.11-19.49-10.86-6.32-15.41-12.33-30.95-18.52-46.42-27.49-68.69-54.98-137.38-82.51-206.06-1.82-4.55-3.48-9.05-1.66-13.98,1.92-5.22,5.83-8.29,11.13-9.27,9.7-1.81,19.46-3.31,29.19-4.94,1.33-.22,2.65-.49,4.4-.82-1.53-4.54-2.92-8.75-4.37-12.94-2.45-7.05-5.16-14.02-7.34-21.15-1.37-4.5-2.02-9.22-2.86-13.87-.15-.82,.03-2.08,.57-2.59,2.17-2.03,4.52-3.86,6.85-5.72,1.83-1.46,3.85-2.72,5.5-4.35,.48-.48,.13-1.95-.05-2.92-.82-4.4,.08-5.79,4.51-6.75,.34-.07,.78,0,1-.2,6.49-5.67,14.99-4.19,23.01-6.48-.93-2.89-1.85-5.77-2.78-8.66-2.08-6.41-1.69-7.12,4.64-9.14,24.44-7.78,49.4-12.68,75.13-12.54,31.98,.18,61.21,9.94,88.35,26.42,1.35,.82,2.17,2.72,2.96,4.25,2.3,4.45,4.46,8.97,6.85,13.84,3.85-6.17,7.15-11.93,10.9-17.38,19.55-28.43,45.92-47.86,78.47-59.11,21.68-7.49,43.86-12.89,66.65-15.36,5.93-.64,12.08,1.09,18.14,1.26,8.04,.23,13.24,4.34,17.74,10.68,42.26,59.52,85.9,118.01,130.52,175.78,23.81,30.84,47.9,61.47,71.87,92.18,2.72,3.48,5.38,7.02,4.78,11.78-.74,5.81-4.63,9.24-9.71,11.08-6.36,2.31-12.9,4.12-19.41,5.96-40.66,11.51-81.33,22.98-122.01,34.45-22.55,6.36-45.09,12.73-67.65,19.04-2.88,.81-4.79,2.28-6.63,4.83-2.27,3.15-5.55,5.73-8.81,7.95-2.7,1.84-6.01,2.79-9.76,4.45Zm152.33-184.84l-.75-.99c-.45-.6-.9-1.19-1.35-1.79l-.81-.92c-.16-.03-.31-.06-.47-.09-.45-.69-.91-1.38-1.36-2.07l.57-.99-1.01-1.62c-.32-.05-.64-.09-.97-.14-.27-.25-.55-.5-.82-.76-.03-.13,0-.25,.07-.36l-.63-.94h0l-.68-.69h0c-.2-.28-.41-.55-.61-.83-.28-.35-.57-.69-.85-1.04-.19-.3-.39-.59-.58-.89l-.03-.03-.61-.68c-.27-.41-.54-.82-.8-1.24-.03-.38-.06-.76-.09-1.15l-1.66-2.34-.73-.06c-1.91-2.77-3.83-5.55-5.74-8.32-4.42-6.13-8.79-12.3-13.28-18.38-19.86-26.84-39.82-53.6-59.63-80.48-14.24-19.31-28.29-38.75-42.49-58.09-.75-1.03-2.08-1.64-3.13-2.44-.43,1.05-.35,1.38-.16,1.64,18.5,25.31,37.02,50.6,55.48,75.93,2.41,3.3,4.5,6.84,6.73,10.26-.74-.68-1.61-1.26-2.2-2.05-13.37-17.97-26.74-35.94-40.05-53.96-7.23-9.8-14.34-19.68-21.5-29.53q-1.95-2.68-4.89-2.05c3.26,4.63,6.38,9.14,9.58,13.59,31.72,44.13,63.43,88.27,95.19,132.38,16.05,22.29,32.21,44.51,48.29,66.77,2.87,3.97,2.3,5.03-2.54,6.02-8.55,1.75-17.1,3.5-25.58,5.55-48.61,11.73-89.15,36.17-119.32,76.55-6.27,8.4-11.53,17.55-17.26,26.36l1.03,.73c11.04-17.76,26.14-31.5,42.6-44.03,39.74-30.26,84.13-42.55,133.77-35.65,5.02,.7,10.38,.5,15.34-.51,4.93-1,5.74-4.19,2.69-8.23-8.66-11.45-17.52-22.75-26.23-34.17-3.09-4.05-5.97-8.28-8.94-12.42,.21-.23,.42-.46,.63-.69l-.42-1.94c-.32-.04-.64-.08-.95-.12-.04-.31-.08-.62-.12-.92l-.99-1.74-1.26,.12c-.16-.03-.28-.13-.35-.28-.12-.07-.16-.17-.12-.3Zm-221.39,172.85l-13.55,2.33,.14,.83c1.38-.23,2.78-.36,4.12-.7,3.1-.78,6.18-1.65,9.27-2.48,5.75-.91,11.51-1.83,17.26-2.74,6.49-.5,12.97-1,19.46-1.5-1.08,.32-2.13,.77-3.23,.95-4.67,.76-9.36,1.45-14.56,2.24,1.17,.36,1.75,.54,2.33,.72l-.26-.49c-35.96,8.75-71.92,17.51-107.88,26.26l-.17-.7c19.63-5.21,39.26-10.43,58.89-15.64l-.06-.55c-3.5,.4-7,.79-10.5,1.19l-.05-.46c7.54-1.76,15.09-3.53,22.63-5.29-.1-.42-.19-.84-.29-1.26l-22.87,5.13-.24-1.12c11.34-2.47,22.69-4.93,34.03-7.4,7.7-1.26,15.4-2.53,23.1-3.79-7.41,.64-14.76,1.65-22.11,2.73-.37,.05-.64,.71-.96,1.09-2.03,.03-4.14-.28-6.09,.14-8.82,1.89-17.6,3.98-26.39,6l-.22-.86c6.65-1.69,13.31-3.39,19.96-5.08l-.2-.9c-11.9,1.17-23.07,5.91-34.81,7.89,16.37-6.04,33.22-10.08,50.48-12.75-1.8-.36-3.61-.6-5.35-.32-11.32,1.83-22.69,3.43-33.92,5.72-44.66,9.11-88,22.83-131.02,37.68-6.83,2.36-13.72,4.56-20.69,6.44-4.95,1.33-7.64-.51-9.11-5.34-.7-2.31-1.33-4.64-2.1-6.92-16.98-50.39-33.93-100.79-51-151.15-8.67-25.56-17.62-51.02-26.32-76.57-.99-2.9-2.29-3.65-4.98-2.42-1.99,.91-3.96,1.96-6.05,2.5-2.46,.63-5.08,.65-7.57,1.18-2.31,.5-3.19,2.22-2.62,4.45,.62,2.44,1.36,4.87,2.25,7.22,14.44,37.77,28.91,75.53,43.39,113.28,16.61,43.32,33.25,86.64,49.84,129.97,.69,1.79,1.47,2.68,3.53,2.06,2.64-.79,5.36-1.29,8.02-2.01,63.95-17.35,127.87-34.82,191.86-52.01,13.5-3.63,27.29-6.22,40.91-9.43,1.25-.29,2.27-1.54,3.4-2.35,.22-.49,.43-.98,1-2.25-8.21,1.31-15.82,2.52-23.42,3.73-5.76,.91-11.51,1.83-17.27,2.74Zm92.68-355.86c-1.37-1.1-2.73-2.21-4.1-3.31l-.66,.69c10.29,14.05,20.58,28.09,30.87,42.14l.83-.57c-.35-1.14-.71-2.28-1.06-3.42,.87,.88,1.85,1.67,2.58,2.65,14.42,19.47,28.62,39.11,43.24,58.43,24.24,32.06,48.67,63.97,73.15,95.84,19.81,25.79,39.85,51.4,59.74,77.12,5.51,7.12,3.46,13.11-5.23,15.54-12.06,3.37-24.14,6.64-36.21,9.96-55.58,15.3-111.16,30.6-166.73,45.9-4.14,1.14-8.26,2.36-12.44,3.56,3.21,7.04,1.57,10.67-5.5,12.84-2.55,.78-5.13,1.45-7.7,2.17,.01,.34,.03,.68,.04,1.02,.95,.12,1.96,.52,2.83,.31,2-.48,3.94-1.25,5.89-1.91,5.27-1.79,9.31-4.73,11.04-10.42,.4-1.3,2.24-2.58,3.68-3.06,5.01-1.66,10.13-2.98,15.22-4.42,64.87-18.33,129.75-36.65,194.62-55.01,2.09-.59,4.23-1.25,6.1-2.31,3.62-2.06,4.28-5.31,1.9-8.73-1.37-1.98-3.02-3.76-4.5-5.67-23.99-30.82-48.3-61.4-71.9-92.52-33.45-44.11-66.43-88.58-99.49-132.98-10.56-14.19-20.74-28.66-31.09-43.01-1.42-1.97-2.99-3.62-5.82-3.42l.69,2.57Zm170.15,268.92l.03,.02c-.3-.25-.85-.75-.88-.72-.7,.68-1.34,1.41-1.99,2.14-.03-.37-.06-.73-.09-1.1-1.03-.2-2.1-.69-3.09-.56-7.16,.97-14.31,2.09-21.47,3.12-29.75,4.28-59.04,10.51-87.12,21.43-27.46,10.68-54.16,22.92-77.52,41.33-1.54,1.21-2.92,2.62-4.55,4.09,24.71-6.69,48.95-13.25,73.19-19.81l.26,.98c-22.74,6.54-45.48,13.08-68.21,19.62l.28,1.02c1.2-.26,2.42-.46,3.61-.79,34.07-9.48,68.14-18.98,102.21-28.45,32.54-9.05,65.08-18.07,97.62-27.1,5.31-1.47,10.65-2.84,15.93-4.43,3.27-.98,4.54-3.29,2.87-5.64-3.55-5-7.45-9.75-10.77-14.03-3.19,2.33-6.04,4.41-8.98,6.55,1.52,1.27,3.45,2.46,4.78,4.12,1.18,1.47,2.8,4.03,2.26,5.11-.9,1.79-3.39,2.78-5.21,4.11,4.9-4.43,5-5.61,.72-8.92,1.32,4.62,.57,6.06-4.11,7.83-.96,.36-1.91,.73-2.87,1.09-12.92,3.26-25.83,6.51-38.75,9.77-.09-.34-.19-.69-.28-1.03,13.98-3.88,27.95-7.76,41.93-11.64l.34-1.1-10.14-7.03ZM168.5,147.81c.57,1.84,.91,3.15,1.38,4.42,7.77,21.01,15.48,42.04,23.34,63.02,24.96,66.58,49.99,133.14,74.95,199.72,.82,2.19,1.75,2.74,4.07,2.02,20.19-6.3,40.68-11.37,61.69-14.12,17.05-2.23,34.14-2.55,51.23-.89,18.82,1.83,37.1,6.21,54.8,12.89,12.74,4.81,25.09,10.28,35.03,20.02,2.2,2.16,8.99-.68,9.85-3.78,1.98-7.16,3.31-14.66,6.44-21.3,10.96-23.29,27.58-42.21,47.36-58.44,28.69-23.54,61.64-37.96,97.8-45.46,5.35-1.11,10.7-2.22,16.55-3.44-1.04-1.65-1.76-2.91-2.6-4.09-19.43-27.08-38.89-54.14-58.32-81.22-31.01-43.23-62-86.48-93.09-129.65-.74-1.03-2.72-1.91-3.96-1.73-22.9,3.29-45.37,8.38-67.11,16.44-36.63,13.59-63.85,37.91-82.4,72.16-1.26,2.33-1.44,4.17-.05,6.64,13.24,23.54,26.33,47.16,39.46,70.75,28.55,51.31,57.1,102.63,85.64,153.95,.66,1.18,1.18,2.44,1.76,3.67-1.37-.72-2.08-1.74-2.7-2.82-30.51-53.5-61.1-106.96-91.47-160.54-15.19-26.79-29.94-53.82-44.98-80.7-.96-1.72-2.36-3.54-4.03-4.48-6-3.39-12.1-6.63-18.34-9.54-19.35-9.02-39.58-14.61-61.03-15.48-20.83-.85-41.27,1.71-61.44,6.66-6.54,1.6-13.02,3.48-19.85,5.32Zm-28.97,31.29c-3.43,.49-4.52,2.15-3.68,5.11,.41,1.43,.79,2.88,1.3,4.28,12.41,34.48,24.91,68.93,37.24,103.44,15.73,44.03,31.34,88.11,46.96,132.18,4.53,12.78,8.87,25.62,13.36,38.4,2.12,6.02,4.75,7.32,10.83,5.28,4.25-1.42,8.45-3,12.59-4.72,18.89-7.84,37.59-16.15,56.64-23.57,43.66-17,88.54-20.42,134.39-10.82,6.8,1.42,13.48,3.43,20.21,5.17-2.2-2.28-4.59-4.24-7.26-5.72-25.54-14.15-53.17-21.25-82.06-23.83-16.91-1.51-33.75-.51-50.49,2.09-20.12,3.13-39.84,8-59.14,14.5-5.15,1.74-5.22,1.89-7.19-3.27-7-18.36-14.02-36.71-20.93-55.1-19.42-51.62-38.82-103.24-58.19-154.88-5.25-13.98-10.34-28.02-15.6-42-.38-1-1.57-2.49-2.28-2.43-4.17,.35-8.3,1.1-12.97,1.79,32.57,87.67,64.91,174.72,97.26,261.78-.31,.12-.63,.24-.94,.36-.31-.72-.64-1.44-.92-2.17-5.93-15.7-11.9-31.38-17.77-47.09-22.63-60.6-45.23-121.21-67.84-181.82-3.49-9.36-7-18.72-10.32-28.15-1-2.84-2.41-2.84-4.63-1.62-2.49,1.36-1.54,3.29-.91,5.09,12.34,35.24,24.73,70.46,37.05,105.7,14.63,41.86,29.18,83.75,43.81,125.61,5.57,15.94,11.33,31.82,16.83,47.78,1.24,3.59,3.38,5.17,6.94,4.43,3.58-.74,7.18-1.6,10.58-2.91,14.8-5.68,29.53-11.55,44.3-17.31,1.31-.51,2.72-.74,4.08-1.09l.29,.8c-.95,.54-1.86,1.19-2.87,1.61-8.08,3.32-16.15,6.66-24.26,9.88-9.39,3.73-18.71,7.71-28.28,10.91-7.67,2.57-10.66,.59-12.99-6.98-.14-.44-.24-.89-.39-1.32-14.69-41.97-29.36-83.94-44.08-125.9-13.73-39.14-27.51-78.26-41.25-117.39-3.96-11.27-7.86-22.57-11.73-33.87-.63-1.83-1.47-2.73-3.52-2.13-2.2,.65-2.05,2.07-1.5,3.77,.57,1.75,.97,3.55,1.59,5.28,9.55,26.84,19.19,53.65,28.68,80.52,23.39,66.18,46.71,132.38,70.05,198.57,1.92,5.43,4.68,6.86,10.07,5.01,1.51-.52,2.93-1.33,4.41-1.94,2.9-1.19,5.81-2.34,8.71-3.51l.72,1.08c-.42,.17-.86,.32-1.27,.53-3.98,2.05-7.86,4.34-11.97,6.1-5.81,2.49-10.03,.31-12.11-5.66-14.5-41.54-28.87-83.13-43.59-124.59-14.76-41.58-29.89-83.03-44.85-124.53-3.66-10.15-7.33-20.3-11.11-30.75ZM462.47,452.6c-5.72,1.34-11.23,2.48-16.65,3.94-60.56,16.29-121.11,32.63-181.66,48.96-13.42,3.62-26.79,7.45-40.25,10.9-8.59,2.2-11.5,.56-14.56-7.09-26.15-65.4-52.29-130.8-78.46-196.19-7.68-19.2-15.44-38.37-23.17-57.55-.98-2.42-2.03-4.82,1.02-7.24-7.42,2.25-9.34,5.85-6.92,12.42,1.63,4.42,3.56,8.72,5.31,13.1,26.88,67.09,53.77,134.18,80.63,201.28,5.3,13.23,10.5,26.49,15.81,39.71,2.64,6.58,6.6,8.65,13.62,7.3,2.14-.41,4.28-.88,6.38-1.47,22.24-6.19,44.47-12.42,66.72-18.61,52.35-14.56,104.7-29.09,157.04-43.66,2.65-.74,5.02-.93,7.59,.51,9.77,5.5,19.14,1.7,28.5-1.52,.12-.04,.14-.4,.38-1.16-1.36,0-2.6-.23-3.73,.04-3.12,.76-6.16,1.84-9.29,2.59-5.15,1.24-7.52-.47-8.33-6.26Zm9.62-12.58l.2-1.24c-1.49-.46-2.96-.99-4.48-1.36-20.09-4.91-40.52-6.5-61.14-6.53-20.33-.03-40.52,1.7-59.87,7.96-21.18,6.85-41.96,14.94-62.94,22.42-14.27,5.09-28.52,10.25-42.9,15.01-5.98,1.97-8.29,.32-10.32-5.67-2.24-6.63-4.38-13.31-6.72-19.91-20.79-58.68-41.61-117.35-62.45-176.01-9.42-26.51-18.92-52.99-28.36-79.5-1.02-2.87-1.91-5.8-2.94-8.92-3.26,1.28-2.45,3.27-1.76,5.22,5.17,14.62,10.38,29.22,15.51,43.85,15.92,45.41,31.85,90.81,47.71,136.24,12.49,35.78,24.91,71.58,37.29,107.4,2.35,6.8,3.6,7.57,10.55,5.38,.77-.24,1.51-.55,2.27-.82,9.73-3.5,19.42-7.11,29.19-10.47,50.02-17.2,100.34-33.21,153.68-36.38,14.69-.87,29.39-1.35,43.77,2.9,1.18,.35,2.47,.29,3.71,.43Zm17.25-7.92c7.05-10.27,16.21-18.41,25.98-25.95,26.17-20.19,54.9-35.14,87.21-42.86,26.93-6.44,54.48-7.95,81.91-10.47,7.85-.72,15.71-1.26,24.21-1.94-9.93-12.9-19.69-25.58-29.45-38.26l-.9,.63c.45,.72,.85,1.48,1.36,2.15,3.44,4.46,7.02,8.81,10.33,13.36,3.51,4.82,2.17,9.18-3.53,10.99-2.78,.88-5.87,1.23-8.8,1.11-8.72-.35-17.43-.93-26.13-1.64-18.3-1.48-36.31,.28-53.87,5.48-34.37,10.17-62.95,29.73-87.74,55.17-3.73,3.82-6.85,8.24-10.25,12.38,1.92-.95,3.33-2.29,4.75-3.63,1.5-1.42,2.94-2.92,4.52-4.25,25.43-21.47,54.43-36.15,86.28-45.46,22.36-6.53,45.22-10.25,68.38-12.12,6.82-.55,13.71-.08,20.71-.08-4.24,.58-8.4,1.18-12.56,1.7-15.15,1.88-30.42,3.04-45.43,5.72-46.05,8.22-87.84,25.8-122.47,58.17-6.03,5.64-11.79,11.64-14.53,19.8ZM133.65,184.63l-1,.28c.34,1.67,.52,3.4,1.06,5,4.21,12.4,8.38,24.81,12.78,37.14,16.23,45.43,32.65,90.8,48.79,136.27,12.33,34.75,24.38,69.59,36.48,104.42,2.43,6.99,3.62,7.94,10.8,5.82,7.59-2.24,15.14-4.71,22.55-7.49,20.97-7.88,41.8-16.14,62.79-23.95,30.63-11.41,62.42-14.93,94.9-13.29,6.38,.32,12.74,.93,19.12,1.41-1.03-.7-2.12-.99-3.23-1.11-6.49-.76-12.99-1.53-19.49-2.22-20.25-2.14-40.36-.97-60.37,2.62-25.29,4.53-49.01,13.82-72.51,23.85-13.52,5.77-27.14,11.31-40.86,16.6-6.75,2.6-9.96,.71-12.34-6.1-4.4-12.58-8.75-25.17-13.2-37.73-16-45.15-32-90.31-48.08-135.43-12.29-34.52-24.69-69-37.06-103.5-.32-.88-.77-1.72-1.16-2.58Zm369.53,234.64l.7,.98c.77-.38,1.58-.71,2.32-1.14,4.65-2.74,9.28-5.52,13.93-8.26,47.2-27.82,98.63-42.46,152.65-49.16,9.66-1.2,19.24-3.09,28.83-4.84,1.8-.33,3.44-1.56,5.15-2.37-.14-.37-.28-.75-.41-1.12-3.62,.22-7.25,.33-10.85,.68-20.55,1.99-41.11,3.84-61.63,6.13-18.41,2.06-36.43,6.12-53.9,12.38-23.81,8.53-45.19,21.41-65.1,36.83-4.03,3.12-7.79,6.59-11.68,9.9ZM111.56,252.31c.41,1.18,.6,1.83,.85,2.46,26.75,66.12,53.52,132.23,80.24,198.36,7.44,18.42,14.74,36.9,22.17,55.33,.55,1.36,1.58,2.52,2.39,3.77l1.16-.66c-.64-1.9-1.2-3.83-1.93-5.7-8.29-21.41-16.66-42.8-24.91-64.23-18.97-49.3-37.89-98.63-56.83-147.95-4.08-10.61-8.25-21.19-12.25-31.83-2.2-5.86-.51-8.95,5.44-10.49,4-1.04,8.03-1.96,12.02-3.02,1.08-.29,2.09-.86,3.13-1.3l-.41-1.41c-10.43,1.04-20.34,4.8-31.08,6.68Zm61.58,72.17l-.48,.3c.09,.33,.17,.66,.28,.98,9.87,29.52,19.78,59.02,29.6,88.56,8.04,24.19,15.97,48.41,23.92,72.64,.87,2.66,2.51,4.24,5.33,3.77,3.48-.58,6.98-1.26,10.34-2.33,31.73-10.11,63.23-21.01,95.2-30.31,35.88-10.44,72.47-17.75,110.01-18.88-8.47,.19-16.97-.41-25.36,.33-14.15,1.24-28.38,2.55-42.32,5.2-41.29,7.86-81.2,20.7-120.65,35-7.02,2.54-13.99,5.22-21.1,7.49-6.03,1.93-8.18,.64-10.17-5.23-1.14-3.37-2.21-6.77-3.38-10.13-12.08-34.83-24.16-69.67-36.26-104.49-4.97-14.3-9.97-28.58-14.95-42.88Zm318.55,112.22c-7.53-.17-13.84,1.57-18.44,7.44-2.19,2.8-4.4,5.58-6.49,8.45-.48,.65-.94,1.93-.62,2.4,.46,.69,1.59,1.16,2.49,1.28,.98,.13,2.05-.16,3.03-.42,8.71-2.37,17.42-4.78,26.12-7.19,.77-.21,1.55-.45,2.27-.79,3.6-1.67,4.22-4.8,1.56-7.77-2.8-3.12-6.44-3.72-9.93-3.4Zm-75.46,9.62l.18,.96c12.85-1.74,25.69-3.48,38.54-5.22l-.07-.61c-12.88,1.62-25.77,3.24-38.65,4.87Zm276.81-84.44c3.73,2.8,6.73,5.06,9.76,7.34,.33-2.26-5.11-6.73-9.76-7.34Zm-239.64,78.93l.07-.29c-6.87,.34-13.75,.69-20.62,1.03l.03,.76c6.84-.5,13.68-1,20.51-1.5Zm218.84-134.84l.56-.44c-3.42-4.18-6.83-8.36-10.25-12.54l-.47,.38c3.39,4.2,6.77,8.4,10.16,12.6Zm-236.47,144.7l-.07-.36-12.56,2.48,.17,.79c4.15-.97,8.31-1.94,12.46-2.91ZM131.61,244.69l.26,.52c3.11-.76,6.23-1.52,9.34-2.29l-.29-.96c-3.1,.91-6.21,1.82-9.31,2.73Z"/><path d="M644.24,270.22c.21-.09,.4-.19,.59-.32-.19,.33-.38,.66-.57,.99l-.18,.06c.06-.25,.12-.51,.18-.76l-.02,.03Z"/><path d="M643.83,268.28c-.25,.23-.49,.47-.74,.7-.12-.12-.25-.24-.37-.37l.02-.34,.12-.13,.97,.14Z"/><path d="M641.93,267.96c.05-.19,.09-.38,.1-.57,.27,.25,.55,.5,.82,.75l-.12,.13-.32,.03c-.16-.12-.33-.23-.49-.35Z"/><path d="M642.11,267.03c-.21-.31-.42-.62-.63-.94,.21,.31,.42,.62,.63,.94Z"/><path d="M641.47,266.09c-.23-.23-.45-.45-.68-.68,.23,.23,.45,.45,.68,.68Z"/><path d="M640.78,265.4c-.2-.27-.41-.55-.61-.82,.2,.27,.41,.55,.61,.82Z"/><path d="M639.31,263.55c-.19-.3-.39-.59-.58-.89,.2,.3,.39,.59,.58,.89Z"/><path d="M638.7,262.63c-.2-.23-.41-.46-.61-.68,.2,.23,.41,.46,.61,.68Z"/><path d="M636.63,259.86c.2-.07,.39-.17,.56-.3,.03,.38,.06,.76,.09,1.15-.22-.28-.43-.56-.65-.85Z"/><path d="M646.39,273.65c-.08-.21-.18-.41-.29-.6,.27,.31,.54,.61,.82,.92-.16-.12-.34-.23-.52-.32Z"/><path d="M635.53,257.22l-.72,.73c-.12-.12-.24-.25-.36-.37,.07-.15,.11-.3,.14-.46l.21,.05c.25,.02,.49,.04,.73,.06Z"/><path d="M650.73,277.21l-.98,.62c-.08-.18-.17-.34-.28-.5l1.26-.12Z"/><path d="M652.79,279.99c-.26,.23-.53,.46-.79,.69l-.25-.24c.04-.17,.04-.33,.02-.5l.06-.06,.95,.12Z"/><path d="M649.01,276.75c-.19-.13-.39-.24-.6-.33-.03-.22-.08-.44-.14-.66,.25,.33,.5,.66,.74,.99Z"/><path d="M651.14,279.19c.2-.05,.4-.13,.58-.24,.04,.31,.08,.61,.12,.92l-.06,.06c-.13,.02-.26,.05-.39,.1-.14-.15-.27-.29-.41-.44,.07-.14,.13-.29,.18-.44l-.02,.04Z"/><path d="M465.85,423.93c-48.23-21.75-97.81-33.99-151.09-23.15l-.13-1.27c5.18-1.09,10.33-2.44,15.56-3.24,34.13-5.24,67.07,.58,99.26,11.54,11.26,3.83,21.95,9.31,32.89,14.08,1.23,.54,2.34,1.36,3.51,2.05Z"/><path d="M631.26,284.07c-2.98,.74-5.96,1.46-8.94,2.23-30.94,7.98-60.36,19.37-86.4,38.37-22.62,16.5-39.92,37.21-50.19,63.48-.21,.53-.48,1.04-.74,1.55-.04,.08-.19,.12-1.17,.68,1.84-4.58,3.24-8.49,4.96-12.25,12.54-27.43,33.22-47.36,58.42-63.03,25.17-15.65,52.66-25.43,81.56-31.52,.76-.16,1.55-.15,2.33-.22l.17,.71Z"/><path d="M620.09,267.72c-34.33,11.09-66.94,25.41-95.52,48.25,.71-.88,1.3-1.91,2.16-2.61,4.79-3.92,9.38-8.16,14.53-11.55,23.29-15.36,48.42-26.67,75.49-33.56,.89-.23,1.79-.42,2.69-.6,.2-.04,.43,.04,.65,.07Z"/><path d="M288.35,396.14c29.79-12.03,60.33-16.44,92.03-8.82-31.42-4.67-62.04-1.1-92.03,8.82Z"/><path d="M383.73,386.08c15.04-.52,59.79,17.56,70.05,25.36-22.57-10.6-45.8-19.35-70.05-25.36Z"/><path d="M222.17,215.83c6.97,19.26,13.95,38.52,20.92,57.78l-1.32,.49c-7.16-19.19-14.31-38.37-21.47-57.56l1.86-.7Z"/><path d="M271.12,409.63c14.59-4.61,29.18-9.21,43.76-13.82l.36,1.13-43.7,14.02-.42-1.34Z"/><path d="M627.24,272.68l-35.98,13.62c11.14-6.77,23.24-11.03,35.98-13.62Z"/><path d="M311.99,404.32c-11.99,3.04-23.97,6.07-35.96,9.11,11.37-5.36,23.6-7.6,35.75-10.09l.21,.98Z"/><path d="M575.18,295.29c9.88-3.59,19.77-7.17,29.65-10.76l.39,1.05c-9.87,3.63-19.74,7.25-29.6,10.88-.14-.39-.29-.78-.43-1.17Z"/><path d="M267.68,406.98c8.21-2.95,16.42-5.9,24.63-8.85l.43,1.18c-8.23,2.91-16.45,5.81-24.68,8.72l-.38-1.05Z"/><path d="M585.11,286.36l-13.58,6.47-.49-.98,13.41-6.61c.22,.37,.44,.75,.66,1.12Z"/><path d="M216.01,482.75c-23.4-65.56-46.8-131.11-70.2-196.67l1.17-.42c23.45,65.55,46.91,131.1,70.36,196.64l-1.33,.45Z"/><path d="M220.52,507.3c34.57-9.66,69.13-19.32,104.26-29.13-2.28,2.91-99.27,30.02-104.26,29.13Z"/><path d="M284.24,482.81c-10.32,3.03-20.64,6.07-30.96,9.09-9.46,2.77-18.93,5.48-28.37,8.28-3.07,.91-4.02-.2-3.63-2.18,1.81,.04,3.31,.4,4.61,.05,19.12-5.21,38.22-10.52,57.33-15.79,.3-.08,.64-.01,.97-.01l.06,.56Z"/><path d="M219.83,504.44c20.15-7.14,41.05-11.73,61.54-17.7l.27,.93c-20.5,5.96-41,11.92-61.5,17.88l-.32-1.11Z"/><path d="M178.88,387.96c4.88,13.25,9.77,26.49,14.65,39.74,1.86,5.06,3.71,10.14,5.55,15.21,.36,1,.63,2.04,.26,3.3-.5-1.12-1.07-2.21-1.49-3.36-6.36-17.48-12.71-34.97-19.04-52.45-.23-.64-.32-1.33-.48-2l.55-.44Z"/><path d="M178.33,388.39c-2.62-6.97-5.27-13.93-7.84-20.91-4.05-10.98-8.05-21.98-12.05-32.98-.46-1.26-.79-2.56-.53-4.1,.64,1.6,1.32,3.18,1.91,4.8,6.36,17.58,12.71,35.17,19.06,52.75l-.55,.44Z"/><path d="M653.23,281.95c-.24,.21-.48,.42-.72,.64-2.09-1.56-4.51-2.9-4.13-6.13,.23,.22,.47,.43,.7,.65,.23,.23,.46,.46,.68,.7,.46,.46,.92,.93,1.37,1.39l.02-.03c-.16,.11-.22,.25-.18,.44,.14,.15,.27,.29,.41,.44,.08,.17,.2,.31,.37,.41l.25,.24c.41,.42,.82,.84,1.23,1.27Z"/><path d="M643.08,268.99c.39,.41,.77,.82,1.16,1.24l.02-.03c-.15,.25-.29,.5-.44,.75-.63-.99-1.26-1.98-1.89-2.97,.16,.12,.33,.23,.49,.35,.06,.14,.16,.24,.3,.31,.12,.12,.24,.25,.37,.37Z"/><path d="M634.81,257.95c.38,.41,.76,.82,1.15,1.23l.03-.03-.43,.74c-1.54-.47-2.89-1.03-1.65-3.02l.23,.21c.05,.21,.15,.37,.32,.49,.12,.13,.24,.25,.36,.37Z"/><path d="M635.95,259.18c.24,.23,.48,.47,.72,.7-.24,0-.48,0-.72,0,0-.24,.02-.48,.03-.73l-.03,.03Z"/><path d="M528.31,415.8c13.08-3.45,26.17-6.87,39.24-10.36,10.2-2.72,20.38-5.54,30.57-8.29,1.08-.29,2.19-.45,3.42-.13-32.27,9.24-64.55,18.48-96.82,27.72l-.19-.37c7.95-2.87,15.89-5.73,23.84-8.6l-.04,.03Z"/><path d="M503.05,426.95c22.45-6.3,44.91-12.6,67.36-18.91l.3,1.04c-22.42,6.42-44.84,12.85-67.26,19.27-.13-.47-.26-.94-.4-1.4Z"/><path d="M690.45,362.65c2.45,2.44,4.89,4.88,7.4,7.38-15.17,3.66-30.57,7.38-45.97,11.1-.08-.26-.16-.53-.24-.79,4.56-1.34,9.1-2.75,13.69-3.98,4.87-1.31,9.78-2.46,14.67-3.67,4.74-1.17,9.49-2.33,14.26-3.51-1.13-2.42-5.48-2.69-3.77-6.51l-.03-.02Z"/><path d="M528.35,415.77c-.54-.04-1.08-.07-1.62-.11-.06-.28-.12-.56-.19-.84,17.56-5.77,35.12-11.53,52.68-17.3l.36,1c-1.76,.61-3.52,1.24-5.29,1.82-14.6,4.82-29.2,9.62-43.8,14.45-.75,.25-1.46,.66-2.18,.99l.04-.03Z"/><path d="M698.75,374.39c1.6-.22,3.19-.44,4.79-.66-3.28,1.14-6.53,2.41-9.87,3.38-3.06,.88-6.22,1.43-9.54,1.46,4.87-1.39,9.75-2.78,14.62-4.18Z"/>  </g>
  <rect x="140" y="258" width="120" height="2.5" fill="#c0a050" rx="1"/>
  <text x="200" y="281" text-anchor="middle" font-family="Georgia, 'Times New Roman', serif" font-size="20" fill="#c0a050" letter-spacing="3">RECIPE</text>
  <text x="200" y="304" text-anchor="middle" font-family="Georgia, 'Times New Roman', serif" font-size="20" fill="#c0a050" letter-spacing="3">BOOK</text>
  <rect x="148" y="311" width="104" height="2.5" fill="#c0a050" rx="1"/>
</svg>
