<svg xmlns="http://www.w3.org/2000/svg" viewBox="55 25 290 360" width="290" height="360">
  <defs>
    <linearGradient id="serShield" x1="0" y1="0" x2="0" y2="1">
      <stop offset="0%" stop-color="#c0a050"/>
      <stop offset="100%" stop-color="#8a6e30"/>
    </linearGradient>
    <linearGradient id="serInner" x1="0" y1="0" x2="0" y2="1">
      <stop offset="0%" stop-color="#2a2a3a"/>
      <stop offset="100%" stop-color="#1a1a28"/>
    </linearGradient>
  </defs>
  <!-- Shield -->
  <path d="M200,40 L330,100 L330,220 Q330,310 200,370 Q70,310 70,220 L70,100 Z" fill="url(#serShield)"/>
  <path d="M200,55 L318,110 L318,218 Q318,300 200,355 Q82,300 82,218 L82,110 Z" fill="url(#serInner)"/>
  <!-- Book (traced from EPS) -->
  <g transform="translate(190,152) scale(0.0243,-0.0243) translate(-4938,-5000)" fill="#c0a050" stroke="#c0a050" stroke-width="60" stroke-linejoin="round">
    <path d="M3384 7976 c-167 -62 -280 -180 -328 -345 -14 -49 -16 -272 -16
-2280 0 -1872 3 -2237 14 -2292 36 -170 166 -330 334 -410 114 -54 165 -59
583 -59 l379 0 0 -273 c0 -311 1 -317 70 -317 44 0 34 -9 243 222 l132 146
186 -184 c180 -179 186 -184 227 -184 71 0 72 4 72 317 l0 273 774 2 774 3 43
30 c23 17 53 50 66 74 l23 44 -2 2566 -3 2566 -24 36 c-14 19 -41 46 -60 60
l-36 24 -1695 2 -1695 2 -61 -23z m526 -2135 l0 -2019 -182 -4 c-152 -5 -195
-9 -253 -28 -90 -28 -165 -70 -237 -132 l-58 -49 0 1958 c0 2070 -1 2002 45
2093 24 48 102 127 150 152 75 40 123 46 333 47 l202 1 0 -2019z m2887 1997
l23 -21 0 -1999 0 -1998 -1380 0 -1380 0 0 2020 0 2020 1357 0 1357 0 23 -22z
m11 -4180 c8 -8 12 -67 12 -200 l0 -188 -1489 0 c-1340 0 -1491 -2 -1505 -16
-27 -27 -31 -63 -9 -92 l20 -27 257 -3 256 -2 0 -195 0 -195 -390 0 c-369 0
-394 1 -452 21 -214 72 -355 294 -320 505 31 186 157 330 337 384 57 18 146
19 1666 19 1236 1 1608 -2 1617 -11z m-1678 -965 l0 -437 -149 147 c-197 195
-176 195 -352 2 -73 -80 -134 -145 -136 -145 -2 0 -3 196 -3 435 l0 435 320 0
320 0 0 -437z m1690 264 c0 -140 -3 -177 -16 -195 l-15 -22 -755 0 -754 0 0
195 0 195 770 0 770 0 0 -173z M4650 6155 l0 -595 785 0 785 0 0 595 0 595
-785 0 -785 0 0 -595z m1430 -5 l0 -450 -645 0 -645 0 0 450 0 450 645 0 645
0 0 -450z"/>
  </g>
  <!-- Decorative lines and text -->
  <rect x="140" y="248" width="120" height="2.5" fill="#c0a050" rx="1"/>
  <text x="200" y="271" text-anchor="middle" font-family="Georgia, 'Times New Roman', serif" font-size="20" fill="#c0a050" letter-spacing="3">RECIPE</text>
  <text x="200" y="294" text-anchor="middle" font-family="Georgia, 'Times New Roman', serif" font-size="20" fill="#c0a050" letter-spacing="3">BOOK</text>
  <rect x="148" y="301" width="104" height="2.5" fill="#c0a050" rx="1"/>
</svg>